<?xml version="1.0" encoding="UTF-8" standalone="no"?>
<!-- Created with Inkscape (http://www.inkscape.org/) -->

<svg
   width="2000"
   height="1000"
   viewBox="0 0 529.16665 264.58334"
   version="1.1"
   id="svg5"
   inkscape:version="1.1 (c68e22c387, 2021-05-23)"
   sodipodi:docname="Logo_final.svg"
   xmlns:inkscape="http://www.inkscape.org/namespaces/inkscape"
   xmlns:sodipodi="http://sodipodi.sourceforge.net/DTD/sodipodi-0.dtd"
   xmlns="http://www.w3.org/2000/svg"
   xmlns:svg="http://www.w3.org/2000/svg">
  <sodipodi:namedview
     id="namedview7"
     pagecolor="#ffffff"
     bordercolor="#666666"
     borderopacity="1.0"
     inkscape:pageshadow="2"
     inkscape:pageopacity="0.0"
     inkscape:pagecheckerboard="true"
     inkscape:document-units="px"
     showgrid="false"
     inkscape:zoom="0.37059484"
     inkscape:cx="972.76045"
     inkscape:cy="-17.53937"
     inkscape:window-width="1920"
     inkscape:window-height="1017"
     inkscape:window-x="-8"
     inkscape:window-y="-8"
     inkscape:window-maximized="1"
     inkscape:current-layer="layer1"
     units="px" />
  <defs
     id="defs2">
    <rect
       x="499.19745"
       y="599.03693"
       width="751.60461"
       height="103.04283"
       id="rect37593" />
    <clipPath
       clipPathUnits="userSpaceOnUse"
       id="clipPath838">
      <path
         d="M 301.60001,250.39999 V 778.88 H 401.28 V 558.71997 H 652.32001 V 778.88 H 754.23999 V 250.39999 h -88 V 470.56 H 389.60001 V 250.39999 Z"
         clip-rule="evenodd"
         id="path836" />
    </clipPath>
    <clipPath
       clipPathUnits="userSpaceOnUse"
       id="clipPath896">
      <path
         d="m 279.67999,250.39999 0.16001,0.16001 1.92001,1.92 v 0.32 h 0.16 l 1.91999,1.92 v 0.31999 H 284 l 1.92001,1.92 V 257.28 h 0.15998 L 288,259.20001 v 0.31998 h 0.16 l 1.91999,1.92001 v 0.32001 h 0.16 l 1.92001,1.91998 V 264 h 0.16001 l 1.91998,1.92001 v 0.31998 h 0.16 l 1.92002,1.92001 v 0.32001 h 0.16 l 1.91998,1.91998 V 270.72 H 298.56 l 1.92001,1.92001 v 0.31998 h 0.16 L 302.56,274.88 v 0.32001 h 0.16 l 1.92001,1.91999 v 0.32 h 0.15998 l 1.92001,1.91999 v 0.32 h 0.16 l 1.91999,1.92002 v 0.32 h 0.16 L 310.88,283.84 v 0.32 h 0.16001 l 1.91998,1.91999 v 0.32 H 313.12 l 1.92001,1.92002 v 0.32 h 0.16 L 317.12,290.56 v 0.32 h 0.16 l 1.92001,1.91999 V 293.12 h 0.15998 l 1.92001,1.92001 v 0.31998 h 0.16 l 1.91999,1.92001 v 0.32001 h 0.16 l 1.92001,1.91998 V 299.84 h 0.16001 l 1.91998,1.92001 v 0.31998 h 0.16 L 329.60001,304 v 0.32001 h 0.16 l 2.07999,2.07998 V 306.72 H 332 l 1.92001,1.92001 v 0.31998 h 0.15998 L 336,310.88 v 0.32001 h 0.16 l 1.91999,1.91999 v 0.32 h 0.16 l 1.92001,1.91999 v 0.32 h 0.16001 l 1.91998,1.92002 v 0.32 h 0.16 l 1.92002,1.91999 v 0.32 h 0.16 l 1.91998,1.91999 v 0.32 H 346.56 l 1.92001,1.92002 v 0.32 h 0.16 L 350.56,326.56 v 0.32 h 0.16 l 1.92001,1.91999 V 329.12 h 0.15998 l 1.92001,1.92001 v 0.31998 h 0.16 l 1.91999,1.92001 v 0.32001 h 0.16 l 1.92001,1.91998 V 335.84 h 0.16001 l 1.91998,1.92001 v 0.31998 H 361.12 L 363.04001,340 v 0.32001 h 0.16 l 1.91999,1.91998 V 342.56 h 0.16 l 1.92001,1.92001 v 0.31998 h 0.15998 L 369.28,346.72 v 0.32001 h 0.16 l 1.91999,1.91998 V 349.28 h 0.16 l 1.92001,1.92001 v 0.31998 h 0.16001 l 1.91998,1.92001 v 0.32001 h 0.16 l 1.92002,1.91998 V 356 h 0.16 l 1.91998,1.92001 v 0.31998 H 379.84 l 1.92001,1.92001 v 0.32001 h 0.16 L 384,362.56 v 0.32 h 0.16 l 1.91999,1.91999 V 365.12 h 0.16 l 1.92001,1.92001 v 0.31998 h 0.16001 l 1.91998,1.92001 v 0.32001 h 0.16 l 1.92002,1.91998 V 371.84 h 0.16 l 1.91998,1.92001 v 0.31998 H 394.56 L 396.48001,376 v 0.32001 h 0.16 l 1.91999,1.91998 V 378.56 h 0.16 l 1.92001,1.92001 v 0.31998 h 0.15998 L 402.72,382.72 v 0.32001 h 0.16 l 1.91999,1.91998 V 385.28 h 0.16 l 1.92001,1.92001 v 0.31998 h 0.16001 l 1.91998,1.92001 v 0.32001 H 409.12 l 1.92001,1.91998 V 392 h 0.16 l 1.91999,1.92001 v 0.31998 h 0.16 l 1.92001,1.92001 v 0.32001 h 0.15998 l 1.92001,1.91998 V 398.72 h 0.16 l 1.91999,1.92001 v 0.31998 h 0.16 L 421.44,402.88 v 0.32001 h 0.16001 l 1.91998,1.91999 v 0.32 h 0.16 l 1.92002,1.91999 v 0.32 h 0.16 l 1.91998,1.92002 v 0.32 H 427.84 l 1.92001,1.91999 v 0.32 h 0.16 l 1.91999,1.91999 v 0.32 H 432 l 2.07999,2.08002 v 0.31998 h 0.16 L 436.16,418.72 v 0.32001 h 0.16001 l 1.91998,1.91998 V 421.28 h 0.16 l 1.92002,1.92001 v 0.31998 h 0.16 l 1.91998,1.92001 v 0.32001 H 442.56 l 1.92001,1.91998 V 428 h 0.16 l 1.91999,1.92001 v 0.31998 h 0.16 l 1.92001,1.92001 v 0.32001 h 0.15998 l 1.92001,1.91998 V 434.72 h 0.16 l 1.91999,1.92001 v 0.31998 h 0.16 L 454.88,438.88 v 0.32001 h 0.16001 l 1.91998,1.91999 v 0.32 H 457.12 l 1.92001,1.91999 v 0.32 h 0.16 l 1.91999,1.92002 v 0.32 h 0.16 l 1.92001,1.91999 v 0.32 h 0.15998 l 1.92001,1.91999 v 0.32 h 0.16 l 1.91999,1.92002 v 0.32 h 0.16 L 469.44,454.56 v 0.32 h 0.16001 l 1.91998,1.91999 V 457.12 h 0.16 l 1.92002,1.92001 v 0.31998 h 0.16 l 1.91998,1.92001 v 0.32001 H 475.84 l 1.92001,1.91998 V 463.84 h 0.16 l 1.91999,1.92001 v 0.31998 H 480 L 481.92001,468 v 0.32001 h 0.15998 L 484,470.23999 V 778.88 h 87.84003 V 470.39999 l 2.07995,-2.07998 L 574.08002,468 576,466.07999 l 0.15997,-0.31998 1.92005,-1.92001 0.15997,-0.32001 1.91998,-1.91998 0.16004,-0.32001 1.91998,-1.92001 0.16003,-0.31998 1.91999,-1.92001 0.15997,-0.32001 1.92004,-1.91999 0.15998,-0.32 1.91998,-1.91999 0.16003,-0.32 1.91999,-1.92002 0.15997,-0.32 1.92004,-1.91999 0.15998,-0.32 1.91998,-1.91999 0.16003,-0.32 1.91999,-1.92002 0.16003,-0.32 1.91998,-1.91999 0.15998,-0.32 1.92004,-1.91999 0.15998,-0.32001 1.91998,-1.92001 0.16003,-0.31998 1.91999,-1.92001 0.16003,-0.32001 1.91998,-1.91998 0.15997,-0.32001 1.92005,-1.92001 0.15997,-0.31998 1.91998,-1.92001 0.16004,-0.32001 1.91998,-1.91998 0.15998,-0.32001 1.92004,-1.92001 0.15997,-0.31998 1.91999,-1.92001 0.16003,-0.32001 1.91998,-1.91998 0.16004,-0.32001 1.91998,-1.92001 0.15997,-0.31998 2.08002,-2.08002 0.15997,-0.32 1.92005,-1.91999 0.15997,-0.32 1.91998,-1.91999 0.16004,-0.32 1.91998,-1.92002 0.16003,-0.32 1.91999,-1.91999 0.15997,-0.32 1.92004,-1.91999 0.15998,-0.32001 1.91998,-1.92001 0.16003,-0.31998 1.91999,-1.92001 0.15997,-0.32001 1.92004,-1.91998 0.15998,-0.32001 1.91998,-1.92001 0.16003,-0.31998 1.91999,-1.92001 0.16003,-0.32001 1.91998,-1.91998 0.15998,-0.32001 1.92004,-1.92001 0.15998,-0.31998 1.91998,-1.92001 0.16003,-0.32001 1.91999,-1.91998 0.16003,-0.32001 1.91998,-1.92001 0.15997,-0.31998 1.92005,-1.92001 0.15997,-0.32001 1.91998,-1.91998 0.16004,-0.32001 1.91998,-1.92001 0.15998,-0.31998 1.92004,-1.92001 0.15997,-0.32001 1.91999,-1.91998 0.16003,-0.32001 1.91998,-1.92001 0.16004,-0.31998 1.91998,-1.92001 0.15997,-0.32001 1.92005,-1.91999 0.15997,-0.32 1.91998,-1.91999 0.16004,-0.32 2.07995,-2.08002 0.16004,-0.31998 1.91998,-1.92001 0.16003,-0.32001 1.91999,-1.91998 0.15997,-0.32001 1.92004,-1.92001 0.15998,-0.31998 1.91998,-1.92001 0.16003,-0.32001 1.91999,-1.91998 0.15997,-0.32001 1.92004,-1.92001 0.15998,-0.31998 1.91998,-1.92001 0.16003,-0.32001 1.91999,-1.91998 0.16003,-0.32001 1.91998,-1.92001 0.15998,-0.31998 1.92004,-1.92001 0.15998,-0.32001 1.91998,-1.91998 0.16003,-0.32001 1.91999,-1.92001 0.16003,-0.31998 1.91998,-1.92001 0.15997,-0.32001 1.92005,-1.91999 0.15997,-0.32 1.91998,-1.91999 0.16004,-0.32 1.91998,-1.92002 0.15998,-0.32 1.92004,-1.91999 0.15997,-0.32 1.91999,-1.91999 0.16003,-0.32 1.91998,-1.92002 0.16004,-0.32 1.91998,-1.91999 0.15997,-0.32 1.92005,-1.91999 L 720,310.88 l 1.91998,-1.92001 0.16004,-0.31998 L 724,306.72 l 0.15997,-0.32001 2.08002,-2.07998 0.16003,-0.32001 1.91999,-1.92001 0.15997,-0.31998 1.92004,-1.92001 0.15998,-0.32001 1.91998,-1.91998 0.16003,-0.32001 1.91999,-1.92001 0.15997,-0.31998 1.92004,-1.92001 0.15998,-0.32001 1.91998,-1.91999 0.16003,-0.32 1.91999,-1.91999 0.16003,-0.32 1.91998,-1.92002 0.15998,-0.32 1.92004,-1.91999 0.15998,-0.32 1.91998,-1.91999 0.16003,-0.32 1.91999,-1.92002 0.16003,-0.32 1.91998,-1.91999 0.15997,-0.32 1.92005,-1.91999 0.15997,-0.32001 1.91998,-1.92001 0.16004,-0.31998 1.91998,-1.92001 0.15998,-0.32001 1.92004,-1.91998 0.15997,-0.32001 1.91999,-1.92001 0.16003,-0.31998 1.91998,-1.92001 0.16004,-0.32001 1.91998,-1.91998 0.15997,-0.32001 1.92005,-1.92001 0.15997,-0.31998 1.91998,-1.92001 0.16004,-0.32001 1.91998,-1.92 0.15997,-0.31999 1.92005,-1.92 0.15997,-0.32 2.08002,-2.08001 H 656.15997 l -2.07995,2.08001 -0.16004,0.32 -1.91998,1.92 -0.15997,0.31999 -1.92005,1.92 -0.15997,0.32001 -1.91998,1.92001 -0.16004,0.31998 -1.91998,1.92001 -0.16003,0.32001 -1.91999,1.91998 -0.15997,0.32001 -2.08002,2.07999 -0.15997,0.32 -1.92005,1.92002 -0.15997,0.32 -1.91998,1.91999 -0.16003,0.32 -1.91999,1.91999 -0.16003,0.32001 -1.91998,1.92001 -0.15998,0.31998 -1.92004,1.92001 -0.15998,0.32001 -1.91998,1.91998 -0.16003,0.32001 -2.08002,2.08001 -0.15997,0.31998 -1.91999,1.92001 -0.16003,0.32001 -1.91998,1.91998 -0.15998,0.32001 -1.92004,1.92001 -0.15997,0.31998 -1.91999,1.92001 -0.16003,0.32001 -1.91998,1.91999 -0.16004,0.32 -1.91998,1.91999 -0.15997,0.32 -2.08002,2.08002 -0.15997,0.31998 -1.92005,1.92001 -0.15997,0.32001 -1.91998,1.91998 -0.16004,0.32001 -1.91998,1.92001 -0.16003,0.31998 -1.91999,1.92001 -0.15997,0.32001 -1.92004,1.91998 -0.15998,0.32001 -1.91998,1.92001 -0.16004,0.31998 -2.07995,2.08002 -0.16003,0.32 -1.91999,1.91999 -0.16003,0.32 -1.91998,1.91999 -0.15998,0.32 -1.92004,1.92002 -0.15998,0.32 -1.91998,1.91999 -0.16003,0.32 -1.91999,1.91999 -0.16003,0.32001 -2.07996,2.08001 -0.16003,0.31998 -1.91998,1.92001 -0.15998,0.32001 -1.92004,1.91998 -0.15997,0.32001 -1.91999,1.92001 -0.16003,0.31998 -1.91998,1.92001 -0.16004,0.32001 -1.91998,1.91998 -0.15997,0.32001 -1.92005,1.92001 -0.15997,0.31998 -2.08002,2.08002 -0.15997,0.31998 -1.91998,1.92001 -0.16004,0.32001 -1.91998,1.91998 -0.16003,0.32001 -1.91999,1.92001 -0.15997,0.31998 -1.92004,1.92001 -0.15998,0.32001 -1.91998,1.91998 -0.16004,0.32001 -1.91998,1.92001 -0.15997,0.31998 -2.08002,2.08001 -0.16003,0.32001 -1.91998,1.91999 -0.15998,0.32 -1.92004,1.91999 -0.15998,0.32 -1.91998,1.92002 -0.16003,0.32 -1.91999,1.91999 -0.16003,0.32 -1.91998,1.91999 -0.15998,0.32 -1.92004,1.92002 -0.15997,0.32 -2.08002,2.07999 -0.15997,0.32001 -1.91999,1.91998 -0.16003,0.32001 -1.91998,1.92001 -0.16004,0.31998 -1.91998,1.92001 -0.15997,0.32001 -1.92005,1.91998 L 532,384 l -1.91998,1.92001 -0.16004,0.31998 -2.07995,2.08002 V 388.16 l -1.76001,-1.76001 h -0.16004 v -0.32 L 524,384.16 h -0.15997 v -0.32 l -1.92005,-1.91999 h -0.15997 v -0.32 l -1.91998,-1.92002 h -0.16004 v -0.32 L 517.76001,377.44 h -0.16003 v -0.32 l -1.91999,-1.91999 h -0.15997 V 374.88 l -1.92004,-1.92001 H 513.44 v -0.31998 L 511.51999,370.72 h -0.16 v -0.32001 L 509.44,368.48001 h -0.16 V 368.16 l -1.92001,-1.92001 h -0.15998 v -0.31998 L 505.28,364 h -0.16 v -0.32001 l -1.91999,-1.91998 h -0.16 V 361.44 L 501.28,359.67999 h -0.16 v -0.32 L 499.20001,357.44 h -0.16 v -0.32 L 497.12,355.20001 h -0.16001 V 354.88 l -1.91998,-1.92001 H 494.88 v -0.31998 L 492.95999,350.72 h -0.16 v -0.32001 L 490.88,348.48001 h -0.16 V 348.16 l -1.92001,-1.92001 h -0.15998 v -0.31998 L 486.72,344 h -0.16 v -0.32001 l -1.91999,-1.91998 h -0.16 V 341.44 L 482.56,339.51999 h -0.16001 v -0.31998 L 480.48001,337.28 h -0.16 v -0.32001 l -1.92002,-1.91998 h -0.16 V 334.72 l -1.75998,-1.76001 h -0.16 v -0.31998 L 474.39999,330.72 h -0.16 v -0.32001 l -1.91998,-1.91998 H 472.16 V 328.16 l -1.92001,-1.92001 h -0.16 v -0.31998 L 468.16,324 H 468 v -0.32001 l -1.92001,-1.91998 h -0.15998 V 321.44 L 464,319.51999 h -0.16 v -0.31998 L 461.92001,317.28 h -0.16 v -0.32001 L 459.84,315.04001 h -0.16001 V 314.72 l -1.91998,-1.92001 h -0.16 v -0.31998 L 455.67999,310.56 h -0.16 v -0.32001 l -1.91998,-1.91998 H 453.44 V 308 l -1.92001,-1.92001 h -0.16 v -0.31998 L 449.60001,304 H 449.44 v -0.32001 l -1.92001,-1.91998 h -0.16 V 301.44 L 445.44,299.51999 h -0.16 v -0.31998 L 443.35999,297.28 h -0.15998 v -0.32001 L 441.28,295.04001 h -0.16 V 294.72 l -1.91999,-1.92001 h -0.16 v -0.31998 L 437.12,290.56 h -0.16001 v -0.32001 l -1.91998,-1.91998 H 434.88 V 288 l -1.92001,-1.92001 h -0.16 v -0.31998 L 430.88,283.84 h -0.16 v -0.32001 l -1.92001,-1.91998 h -0.15998 V 281.28 L 426.72,279.35999 h -0.16 v -0.31998 L 424.79999,277.28 h -0.15998 v -0.32001 L 422.72,275.04001 h -0.16 V 274.72 l -1.91999,-1.92001 h -0.16 v -0.31998 L 418.56,270.56 h -0.16001 v -0.32001 l -1.91998,-1.91998 h -0.16 V 268 l -1.92002,-1.92001 h -0.16 v -0.31998 L 412.32001,263.84 H 412.16 v -0.32001 l -1.92001,-1.91998 h -0.16 V 261.28 L 408.16,259.35999 H 408 v -0.31998 L 406.07999,257.12 h -0.15998 v -0.32001 L 404,254.88 h -0.16 v -0.32 l -1.91999,-1.92 h -0.16 v -0.31999 L 399.84,250.39999 Z"
         clip-rule="evenodd"
         id="path894" />
    </clipPath>
    <clipPath
       clipPathUnits="userSpaceOnUse"
       id="clipPath942">
      <path
         d="m 527.67999,36.959999 -0.32001,0.16 -0.15997,0.16 -0.64001,0.319999 -0.15998,0.16 -0.64001,0.320004 -0.16003,0.16 -0.63996,0.319999 -0.16003,0.16 -0.64002,0.32 -0.15997,0.16 -0.64002,0.319999 -0.15997,0.16 -0.64001,0.32 -0.15998,0.16 -0.64001,0.32 -0.16003,0.159999 -0.63996,0.32 -0.16003,0.16 -0.64002,0.32 -0.15997,0.159999 -0.64002,0.32 -0.15997,0.160004 -0.64001,0.32 -0.15998,0.159999 -0.64001,0.32 -0.16003,0.16 -0.63996,0.32 L 516.79999,43.52 516.15997,43.84 516,44 l -0.64002,0.32 -0.15997,0.16 -0.64001,0.319999 -0.15998,0.16 -0.64001,0.32 -0.16003,0.16 -0.63996,0.319999 -0.16003,0.16 -0.64002,0.320004 -0.15997,0.16 -0.64001,0.319999 -0.15998,0.16 -0.64001,0.32 -0.16001,0.16 -0.63998,0.319999 -0.16,0.16 -0.64002,0.32 -0.16,0.16 -0.63999,0.319999 -0.16,0.16 -0.64001,0.32 -0.15998,0.16 -0.64001,0.319999 -0.16001,0.16 -0.63998,0.320004 -0.16,0.16 -0.64002,0.319999 -0.16,0.16 -0.63999,0.32 -0.16,0.16 -0.32001,0.16 -0.16,0.159999 -0.63999,0.32 -0.16,0.16 -0.64001,0.32 -0.15998,0.16 -0.64001,0.319999 -0.16,0.16 -0.63999,0.32 -0.16,0.16 -0.64002,0.319999 -0.16,0.16 -0.63999,0.320004 -0.16,0.16 -0.64001,0.319999 -0.15998,0.16 -0.64001,0.32 -0.16,0.16 -0.63999,0.319999 -0.16,0.16 -0.64002,0.32 -0.16,0.16 -0.63999,0.319999 -0.16,0.16 -0.64001,0.32 -0.15998,0.16 -0.64001,0.319999 -0.16,0.16 -0.63999,0.320004 -0.16,0.16 -0.64002,0.319999 -0.16,0.16 -0.63999,0.32 -0.16,0.16 -0.64001,0.319999 -0.15998,0.16 -0.64001,0.32 -0.16,0.16 -0.63999,0.32 -0.16,0.159999 -0.64002,0.32 -0.16,0.16 -0.63999,0.32 -0.16,0.159999 -0.64001,0.32 -0.15998,0.160004 -0.64001,0.32 -0.16,0.159999 -0.63999,0.32 -0.16,0.16 -0.64002,0.32 -0.16,0.159999 -0.63999,0.32 -0.16,0.16 -0.64001,0.32 -0.15998,0.160003 -0.64001,0.32 -0.16,0.159996 -0.63999,0.32 -0.16,0.160003 -0.64002,0.32 -0.16,0.159996 -0.31998,0.160004 -0.16,0.159996 -0.64002,0.32 -0.16,0.160003 -0.63998,0.32 -0.16001,0.159996 -0.64001,0.32 L 476.64001,67.68 476,68 l -0.16,0.160004 -0.63999,0.319999 -0.16,0.159996 -0.64002,0.32 -0.16,0.160004 -0.63998,0.319999 -0.16001,0.159996 -0.64001,0.32 -0.15998,0.160004 -0.64001,0.32 -0.16,0.159996 -0.63999,0.319999 -0.16,0.160004 -0.64002,0.32 -0.16,0.159996 -0.63998,0.319999 L 469.44,72 l -0.64001,0.32 -0.15998,0.160003 -0.64001,0.32 -0.16,0.159996 -0.63999,0.32 -0.16,0.160003 -0.64002,0.32 -0.16,0.159996 -0.63998,0.32 -0.16001,0.160004 -0.64001,0.319999 -0.15998,0.159996 -0.64001,0.32 -0.16,0.160004 -0.63999,0.319999 -0.16,0.159996 -0.64002,0.320008 -0.16,0.159996 -0.63998,0.319999 -0.16001,0.160004 -0.64001,0.32 -0.15998,0.159996 -0.64001,0.319999 -0.16,0.160004 -0.63999,0.32 -0.16,0.159996 -0.64002,0.32 -0.16,0.160003 -0.63998,0.32 -0.16001,0.159996 -0.64001,0.32 L 456.64001,79.68 456,80 l -0.16,0.160004 -0.63999,0.319999 -0.16,0.159996 -0.32001,0.160004 -0.16,0.159996 -0.63999,0.32 -0.16,0.160003 -0.64001,0.32 -0.16001,0.159996 -0.63998,0.32 -0.16001,0.160004 -0.64001,0.319999 -0.16,0.159996 -0.63999,0.32 -0.16,0.160004 -0.63999,0.319999 -0.16,0.159996 -0.64001,0.320008 -0.16001,0.159996 -0.63998,0.319999 -0.16001,0.160004 -0.64001,0.32 -0.16,0.159996 -0.63999,0.319999 -0.16,0.160004 -0.63999,0.32 -0.16,0.159996 -0.64001,0.32 -0.16001,0.160003 -0.63998,0.32 -0.16001,0.159996 -0.64001,0.32 -0.16,0.160003 -0.63999,0.32 -0.16,0.160004 -0.63999,0.319999 -0.16,0.159996 -0.64001,0.32 -0.16001,0.160004 -0.63998,0.319999 -0.16001,0.159996 -0.64001,0.32 -0.16,0.160004 -0.63999,0.32 -0.16,0.159996 -0.63999,0.319999 -0.16,0.160004 -0.64001,0.32 -0.16001,0.159996 -0.63998,0.319999 L 436.16,92 l -0.64001,0.32 -0.16,0.160003 -0.63999,0.32 -0.16,0.159996 -0.63999,0.32 -0.16,0.160003 -0.64001,0.32 -0.16001,0.159996 -0.63998,0.32 -0.16001,0.160004 -0.64001,0.319999 -0.16,0.159996 -0.31998,0.160004 -0.16001,0.159996 -0.64001,0.32 -0.16,0.160003 -0.63999,0.32 -0.16,0.160004 -0.63999,0.319999 -0.16,0.159996 -0.64001,0.32 -0.16001,0.160004 -0.63998,0.319999 -0.16001,0.159996 -0.64001,0.32 -0.16,0.160004 -0.63999,0.32 -0.16,0.159996 -0.63999,0.319999 -0.16,0.160004 -0.64001,0.32 -0.16001,0.159996 -0.63998,0.319999 L 422.88,100 l -0.64001,0.32 -0.16,0.16 -0.63999,0.32 -0.16,0.16 -0.63999,0.32 -0.16,0.16 -0.64001,0.32 -0.16001,0.16 -0.63998,0.32 -0.16001,0.16 -0.64001,0.32 -0.16,0.16 -0.63999,0.32 -0.16,0.16 -0.63999,0.32 -0.16,0.16 -0.64001,0.32 -0.16001,0.16 -0.63998,0.32 -0.16001,0.16 -0.64001,0.32 -0.16,0.16 -0.63999,0.32 -0.16,0.16 -0.63999,0.32 -0.16,0.16 -0.64001,0.32 -0.16001,0.16 -0.63998,0.32 -0.16001,0.16 -0.64001,0.32 -0.16,0.16 -0.63999,0.32 -0.16,0.16 -0.63999,0.32 -0.16,0.16 -0.64001,0.32 -0.16001,0.16 -0.63998,0.32 -0.16001,0.16 -0.32,0.16 -0.16001,0.16 -0.63998,0.32 -0.16,0.16 -0.64002,0.32 -0.16,0.16 -0.63999,0.32 -0.16,0.16 -0.64001,0.32 -0.15998,0.16 -0.64001,0.32 -0.16001,0.16 -0.63998,0.32 -0.16,0.16 -0.64002,0.32 -0.16,0.16 -0.63999,0.32 -0.16,0.16 -0.64001,0.32 -0.15998,0.16 -0.64001,0.32 -0.16001,0.16 -0.63998,0.32 -0.16,0.16 -0.64002,0.32 -0.16,0.16 -0.63999,0.32 -0.16,0.16 -0.64001,0.32 -0.15998,0.16 -0.64001,0.32 -0.16001,0.16 -0.63998,0.32 -0.16,0.16 -0.64002,0.32 -0.16,0.16 -0.63999,0.32 -0.16,0.16 -0.64001,0.32 -0.15998,0.16 -0.64001,0.32 -0.16001,0.16 -0.63998,0.32 -0.16,0.16 -0.64002,0.32 -0.16,0.16 -0.63999,0.32 -0.16,0.16 -0.64001,0.32 -0.15998,0.16 -0.64001,0.32 -0.16001,0.16 -0.63998,0.32 -0.16,0.16 -0.64002,0.32 -0.16,0.16 -0.63999,0.32 -0.16,0.16 -0.64001,0.32 -0.15998,0.16 -0.64001,0.32 -0.16001,0.16 -0.32,0.16 -0.15998,0.16 -0.64001,0.32 -0.16,0.16 -0.63999,0.32 -0.16,0.16 -0.64002,0.32 -0.16,0.16 -0.63999,0.32 -0.16,0.16 -0.64001,0.32 -0.15998,0.16 -0.64001,0.32 -0.16,0.16 -0.63999,0.32 -0.16,0.16 -0.64002,0.32001 -0.16,0.15999 -0.63999,0.32 -0.16,0.16001 -0.64001,0.31999 -0.15998,0.16 -0.64001,0.31999 -0.16,0.16001 -0.63999,0.32 -0.16,0.15999 -0.64002,0.32001 -0.16,0.16 -0.63999,0.32 -0.16,0.16 -0.64001,0.31999 -0.15998,0.16001 -0.64001,0.32 -0.16,0.16001 -0.63999,0.31999 -0.16,0.16 -0.64002,0.31999 -0.16,0.16001 -0.63999,0.32001 -0.16,0.15998 -0.64001,0.32001 -0.15998,0.16 -0.64001,0.32 -0.16,0.16 -0.63999,0.31999 -0.16,0.16001 -0.64002,0.32 -0.16,0.15999 L 362.88,136 l -0.16,0.16 -0.64001,0.32 -0.15998,0.16 -0.64001,0.32001 -0.16,0.15998 -0.63999,0.32001 -0.16,0.16001 -0.64002,0.31999 -0.16,0.16 -0.63999,0.31999 -0.16,0.16001 -0.64001,0.32 -0.15998,0.15999 -0.32,0.16001 -0.16001,0.16 -0.64001,0.31999 -0.15998,0.16001 -0.64001,0.32 -0.16,0.16001 -0.63999,0.31999 -0.16,0.16 -0.64002,0.31999 -0.16,0.16001 -0.63998,0.32001 -0.16001,0.15998 -0.64001,0.32001 -0.15998,0.16 -0.64001,0.32 -0.16,0.16 -0.63999,0.31999 -0.16,0.16001 -0.64002,0.32 -0.16,0.15999 -0.63998,0.32001 -0.16001,0.16 -0.64001,0.32 -0.15998,0.16 -0.64001,0.32001 -0.16,0.15998 -0.63999,0.32001 -0.16,0.16001 -0.64002,0.31999 -0.16,0.16 -0.63998,0.31999 -0.16001,0.16001 -0.64001,0.32 -0.15998,0.15999 L 344,147.36 l -0.16,0.16 -0.63999,0.32 -0.16,0.16 -0.64002,0.32001 -0.16,0.15999 -0.63998,0.32 -0.16001,0.16001 -0.64001,0.31999 -0.15998,0.16 -0.64001,0.31999 -0.16,0.16001 -0.63999,0.32 -0.16,0.15999 -0.64002,0.32001 -0.16,0.16 -0.63998,0.32 -0.16001,0.16 -0.64001,0.31999 -0.15998,0.16001 -0.64001,0.32 -0.16,0.16001 -0.63999,0.31999 -0.16,0.16 -0.64002,0.31999 -0.16,0.16001 -0.31998,0.16 -0.16,0.16001 -0.64001,0.31999 -0.16001,0.16 -0.63998,0.31999 -0.16001,0.16001 -0.64001,0.32 -0.16,0.15999 -0.63999,0.32001 -0.16,0.16 -0.63999,0.32 -0.16,0.16 -0.64001,0.32001 -0.16001,0.15999 -0.63998,0.32 -0.16001,0.16001 -0.64001,0.31999 -0.16,0.16 -0.63999,0.31999 -0.16,0.16001 -0.63999,0.32 -0.16,0.15999 -0.64001,0.32001 -0.16001,0.16 -0.63998,0.32 -0.16001,0.16 -0.64001,0.31999 -0.16,0.16001 -0.63999,0.32 -0.16,0.16001 -0.63999,0.31999 -0.16,0.16 -0.64001,0.31999 -0.16001,0.16001 -0.63998,0.32001 -0.16001,0.15998 -0.64001,0.32001 -0.16,0.16 -0.63999,0.32 -0.16,0.16 -0.63999,0.31999 -0.16,0.16001 -0.64001,0.32 -0.16001,0.15999 -0.63998,0.32001 -0.16001,0.16 -0.64001,0.32 -0.16,0.16 -0.63999,0.32001 -0.16,0.15998 -0.63999,0.32001 -0.16,0.16001 -0.64001,0.31999 -0.16001,0.16 -0.63998,0.31999 -0.16001,0.16001 -0.64001,0.32 -0.16,0.15999 -0.63999,0.32001 -0.16,0.16 -0.63999,0.32 -0.16,0.16 -0.32001,0.16 -0.16,0.16001 -0.63999,0.31999 -0.16,0.16 -0.64001,0.31999 -0.16001,0.16001 -0.63998,0.32001 -0.16001,0.15998 -0.64001,0.32001 -0.16,0.16 -0.63999,0.32 -0.16,0.16 -0.63999,0.31999 -0.16,0.16001 -0.64001,0.32 -0.16001,0.15999 -0.63998,0.32001 -0.16001,0.16 -0.64001,0.32 -0.16,0.16 -0.63999,0.32001 -0.16,0.15998 -0.63999,0.32001 -0.16,0.16001 -0.64001,0.31999 -0.16001,0.16 -0.63998,0.31999 -0.16001,0.16001 -0.64001,0.32 -0.16,0.15999 -0.63999,0.32001 -0.16,0.16 -0.63999,0.32 -0.16,0.16 -0.64001,0.32001 -0.16001,0.15999 -0.63998,0.32 -0.16001,0.16001 -0.64001,0.31999 -0.16,0.16 -0.63999,0.31999 -0.16,0.16001 -0.63999,0.32 -0.16,0.15999 -0.64001,0.32001 -0.16001,0.16 -0.63998,0.32 -0.16001,0.16 -0.64001,0.31999 -0.16,0.16001 -0.63999,0.32 -0.16,0.16001 -0.63999,0.31999 -0.16,0.16 -0.64001,0.31999 -0.16001,0.16001 -0.63998,0.32001 -0.16001,0.15998 -0.64001,0.32001 -0.16,0.16 -0.63999,0.32 -0.16,0.16 -0.32001,0.16 -0.16,0.15999 -0.63999,0.32001 -0.16,0.16 -0.64001,0.32 -0.15998,0.16 -0.64001,0.32001 -0.16001,0.15999 -0.63998,0.32 -0.16,0.16001 -0.64002,0.31999 -0.16,0.16 -0.63999,0.31999 -0.16,0.16001 -0.64001,0.32 -0.15998,0.15999 -0.64001,0.32001 -0.16001,0.16 -0.63998,0.32 -0.16,0.16 -0.64002,0.31999 -0.16,0.16001 -0.63999,0.32 -0.16,0.16001 -0.64001,0.31999 -0.15998,0.16 -0.64001,0.31999 -0.16001,0.16001 -0.63998,0.32001 -0.16,0.15998 -0.64002,0.32001 -0.16,0.16 -0.63999,0.32 -0.16,0.16 -0.64001,0.31999 -0.15998,0.16001 -0.64001,0.32 -0.16001,0.15999 -0.63998,0.32001 -0.16,0.16 -0.64002,0.32 -0.16,0.16 -0.63999,0.32001 -0.16,0.15998 -0.64001,0.32001 -0.15998,0.16001 -0.64001,0.31999 -0.16001,0.16 -0.63998,0.31999 -0.16,0.16001 -0.64002,0.32 -0.16,0.15999 -0.63999,0.32001 -0.16,0.16 -0.64001,0.32 -0.15998,0.16 -0.64001,0.32001 -0.16001,0.15999 -0.63998,0.32 -0.16,0.16001 -0.32001,0.15998 -0.16,0.16001 -0.63999,0.32001 -0.16,0.15998 -0.64002,0.32001 -0.16,0.16 -0.63999,0.32 -0.16,0.16 -0.64001,0.31999 -0.15998,0.16001 -0.64001,0.32 -0.16,0.15999 -0.63999,0.32001 -0.16,0.16 -0.64002,0.32 -0.15999,0.16 -0.64,0.32001 -0.16,0.15998 -0.64,0.32001 -0.16,0.16001 -0.64,0.31999 -0.16001,0.16 -0.63999,0.31999 -0.15999,0.16001 -0.64002,0.32 -0.15999,0.15999 -0.64,0.32001 -0.16,0.16 -0.64,0.32 -0.16,0.16 -0.64,0.32001 -0.16001,0.15999 -0.63999,0.32 -0.15999,0.16001 -0.64002,0.31999 -0.15999,0.16 -0.64,0.31999 -0.16,0.16001 -0.64,0.32 -0.16,0.15999 -0.64,0.32001 -0.16001,0.16 -0.63999,0.32 -0.15999,0.16 -0.64002,0.31999 -0.15999,0.16001 -0.64,0.32 -0.16,0.16001 -0.64,0.31999 -0.16,0.16 -0.64,0.31999 -0.16001,0.16001 -0.63999,0.32001 -0.15999,0.15998 -0.64002,0.32001 -0.15999,0.16 -0.64,0.32 -0.16,0.16 -0.64,0.31999 -0.16,0.16001 -0.64,0.32 -0.16001,0.15999 -0.31999,0.16001 -0.16,0.16 -0.64,0.32001 -0.16,0.15999 -0.64,0.32 -0.16001,0.16001 -0.64,0.31999 -0.15999,0.16 -0.63999,0.31999 -0.16001,0.16001 -0.64,0.32 -0.16,0.15999 -0.64,0.32001 -0.16,0.16 -0.64,0.32 -0.16001,0.16 -0.64,0.31999 -0.15999,0.16001 -0.63999,0.32 -0.16001,0.16001 -0.64,0.31999 -0.16,0.16 -0.64,0.31999 -0.16,0.16001 -0.64,0.32001 -0.16001,0.15998 -0.64,0.32001 -0.15999,0.16 -0.63999,0.32 -0.16001,0.16 -0.64,0.31999 -0.16,0.16001 -0.64,0.32 -0.16,0.15999 -0.64,0.32001 -0.16001,0.16 -0.64,0.32 -0.15999,0.16 -0.63999,0.32001 -0.16001,0.15998 -0.64,0.32001 -0.16,0.16001 -0.64,0.31999 -0.16,0.16 -0.64,0.31999 -0.16001,0.16001 -0.64,0.32 -0.15999,0.15999 -0.63999,0.32001 -0.16001,0.16 -0.64,0.32 -0.16,0.16 -0.64,0.32001 -0.16,0.15999 -0.64,0.32 -0.16001,0.16001 -0.64,0.31999 -0.15999,0.16 -0.63999,0.31999 -0.16001,0.16001 -0.64,0.32 -0.16,0.15999 -0.31999,0.16001 -0.16001,0.16 -0.64,0.31999 -0.16,0.16001 -0.64,0.32 -0.16,0.15999 -0.64,0.32001 -0.16001,0.16 -0.64,0.32 -0.15998,0.16 -0.64,0.32001 -0.16001,0.15998 -0.64,0.32001 -0.16,0.16001 -0.64,0.31999 -0.16,0.16 -0.64,0.31999 -0.16001,0.16001 -0.64,0.32 -0.15998,0.15999 -0.64,0.32001 -0.16001,0.16 -0.64,0.32 -0.16,0.16 -0.64,0.32001 -0.16,0.15999 -0.64,0.32 -0.16001,0.16001 -0.64,0.31999 -0.15998,0.16 -0.64,0.31999 -0.16001,0.16001 -0.64,0.32 -0.16,0.15999 -0.64,0.32001 -0.16,0.16 -0.64,0.32 -0.16001,0.16 -0.64,0.31999 -0.15998,0.16001 -0.64,0.32 -0.16001,0.16001 -0.64,0.31999 -0.16,0.16 -0.64,0.31999 -0.16,0.16001 -0.64,0.32001 -0.16001,0.15998 -0.64,0.32001 -0.15998,0.16 -0.64,0.32 -0.16001,0.16 -0.64,0.31999 -0.16,0.16001 -0.64,0.32 -0.16,0.15999 -0.64,0.32001 -0.16001,0.16 -0.64,0.32 -0.15998,0.16 -0.64,0.32001 679.20001,0.15998 v -0.15998 l -0.16004,-0.16001 -0.32,-0.16 -0.15998,-0.16 -0.64001,-0.32 -0.15997,-0.16 -0.64002,-0.32001 -0.15997,-0.15999 -0.64002,-0.32 -0.16003,-0.16001 -0.63995,-0.31999 -0.16004,-0.16 -0.64001,-0.32 -0.15998,-0.16 -0.64001,-0.32001 -0.15997,-0.15998 -0.64002,-0.32001 -0.15997,-0.16001 -0.64002,-0.31999 -0.16003,-0.16 -0.63995,-0.31999 -0.16004,-0.16001 -0.64001,-0.32 -0.15998,-0.16001 -0.64001,-0.31999 -0.15997,-0.16 -0.64002,-0.32 -0.15997,-0.16 -0.64002,-0.32001 -0.16003,-0.15999 -0.63995,-0.32 -0.16004,-0.16001 L 855.03998,233.44 854.88,233.28 854.23999,232.96001 854.08002,232.8 853.44,232.48 853.28003,232.32001 852.64001,232 l -0.16003,-0.16 -0.63995,-0.32 -0.16004,-0.16 -0.64001,-0.32001 -0.15998,-0.15999 -0.64001,-0.32 -0.15997,-0.16001 -0.64002,-0.31999 -0.15997,-0.16 -0.64002,-0.31999 -0.16003,-0.16001 -0.63995,-0.32001 -0.16004,-0.15998 -0.64001,-0.32001 -0.15998,-0.16 -0.64001,-0.32 -0.15997,-0.16 -0.64002,-0.32001 -0.15997,-0.15999 -0.64002,-0.32 -0.16003,-0.16001 -0.63995,-0.31999 -0.16004,-0.16 -0.64001,-0.32 -0.15998,-0.16 -0.64001,-0.32001 -0.15997,-0.15998 -0.64002,-0.32001 -0.15997,-0.16001 -0.64002,-0.31999 -0.16003,-0.16 -0.63995,-0.31999 -0.16004,-0.16001 -0.64001,-0.32 -0.15998,-0.16001 -0.64001,-0.31999 -0.15997,-0.16 -0.64002,-0.32 -0.15997,-0.16 -0.64002,-0.32001 -0.16003,-0.15999 -0.32001,-0.16 -0.15997,-0.16 -0.64002,-0.31999 -0.15997,-0.16001 -0.64001,-0.32001 -0.15998,-0.15998 -0.64001,-0.32001 -0.16003,-0.16 -0.63996,-0.32 -0.16003,-0.16 -0.64002,-0.32001 L 832,219.52 831.35998,219.2 831.20001,219.03999 830.56,218.72 l -0.15998,-0.16 -0.64001,-0.32 -0.16003,-0.16 -0.63996,-0.32001 -0.16003,-0.15998 L 828.15997,217.28 828,217.11999 827.35998,216.8 l -0.15997,-0.16 -0.64001,-0.31999 -0.15998,-0.16001 -0.64001,-0.32 -0.16003,-0.16001 -0.63996,-0.31999 -0.16003,-0.16 -0.64002,-0.32 -0.15997,-0.16 -0.64002,-0.32001 -0.15997,-0.15999 -0.64001,-0.32 -0.15998,-0.16001 -0.64001,-0.31999 -0.16003,-0.16 -0.63996,-0.31999 L 820.79999,212.8 820.15997,212.48 820,212.32001 819.35998,212 l -0.15997,-0.16 -0.64001,-0.32 -0.15998,-0.16 -0.64001,-0.32001 -0.16003,-0.15999 -0.63996,-0.32 -0.16003,-0.16001 L 816.15997,210.08 816,209.92 l -0.64002,-0.31999 -0.15997,-0.16001 -0.64001,-0.32001 -0.15998,-0.15998 -0.64001,-0.32001 -0.16003,-0.16 -0.63996,-0.32 -0.16003,-0.16 -0.64002,-0.32001 L 812,207.52 811.35998,207.2 811.20001,207.03999 810.56,206.72 l -0.15998,-0.16 -0.64001,-0.32 -0.16003,-0.16 -0.63996,-0.32001 -0.16003,-0.15998 L 808.15997,205.28 808,205.11999 807.35998,204.8 l -0.15997,-0.16 -0.64001,-0.31999 -0.15998,-0.16001 -0.64001,-0.32 -0.16003,-0.16001 -0.31995,-0.15999 -0.16003,-0.16 -0.64002,-0.32001 -0.15997,-0.15999 -0.64002,-0.32 -0.15997,-0.16001 -0.64002,-0.31999 -0.16003,-0.16 -0.63995,-0.31999 -0.16004,-0.16001 -0.63995,-0.32001 -0.16003,-0.15998 -0.64002,-0.32001 -0.15997,-0.16 -0.64002,-0.32 -0.15997,-0.16 -0.64002,-0.32001 -0.16003,-0.15999 -0.63995,-0.32 -0.16004,-0.16001 -0.63995,-0.31999 -0.16003,-0.16 -0.64002,-0.32 -0.15997,-0.16 -0.64002,-0.32001 -0.15997,-0.15998 -0.64002,-0.32001 -0.16003,-0.16001 -0.63995,-0.31999 -0.16004,-0.16 -0.63995,-0.31999 -0.16003,-0.16001 -0.64002,-0.32 -0.15997,-0.16001 -0.64002,-0.31999 -0.15997,-0.16 -0.64002,-0.32 -0.16003,-0.16 -0.63995,-0.32001 -0.16004,-0.15999 -0.63995,-0.32 -0.16003,-0.16001 -0.64002,-0.31999 -0.15997,-0.16 -0.64002,-0.31999 L 787.52002,192.8 786.88,192.48 786.71997,192.32001 786.08002,192 l -0.16004,-0.16 -0.63995,-0.32 -0.16003,-0.16 -0.64002,-0.32001 -0.15997,-0.15999 -0.64002,-0.32 -0.15997,-0.16001 -0.64002,-0.31999 -0.16003,-0.16 -0.63995,-0.31999 -0.16004,-0.16001 -0.63995,-0.32001 -0.16003,-0.15998 -0.64002,-0.32001 -0.15997,-0.16 -0.64002,-0.32 -0.15997,-0.16 -0.64002,-0.32001 -0.16003,-0.15999 -0.63995,-0.32 -0.16004,-0.16001 -0.63995,-0.31999 -0.16003,-0.16 -0.64002,-0.32 -0.15997,-0.16 -0.64002,-0.32001 -0.15997,-0.15998 L 774.88,185.28 774.71997,185.11999 774.40002,184.96001 774.23999,184.8 773.59998,184.48 773.44,184.32001 772.79999,184 772.64001,183.84 772,183.52 l -0.15997,-0.16 -0.64002,-0.32001 -0.16003,-0.15999 -0.63996,-0.32 -0.16003,-0.16001 L 769.59998,182.08 769.44,181.92 768.79999,181.60001 768.64001,181.44 768,181.11999 l -0.15997,-0.15998 -0.64002,-0.32001 -0.16003,-0.16 -0.63996,-0.32 -0.16003,-0.16 -0.64001,-0.32001 L 765.44,179.52 764.79999,179.2 764.64001,179.03999 764,178.72 l -0.15997,-0.16 -0.64002,-0.32 -0.16003,-0.16 -0.63996,-0.32001 -0.16003,-0.15998 L 761.59998,177.28 761.44,177.11999 760.79999,176.8 760.64001,176.64 760,176.32001 759.84003,176.16 l -0.64002,-0.32 -0.16003,-0.16001 -0.63996,-0.31999 -0.16003,-0.16 -0.64001,-0.32 -0.15998,-0.16 -0.64001,-0.32001 L 756.64001,174.24 756,173.92 l -0.15997,-0.16001 -0.64002,-0.31999 -0.16003,-0.16 -0.63996,-0.31999 L 754.23999,172.8 753.59998,172.48 753.44,172.32001 752.79999,172 752.64001,171.84 752,171.52 l -0.15997,-0.16 -0.64002,-0.32001 -0.16003,-0.15999 -0.63996,-0.32 -0.16003,-0.16001 L 749.59998,170.08 749.44,169.92 748.79999,169.60001 748.64001,169.44 748,169.11999 l -0.15997,-0.15998 -0.64002,-0.32001 -0.16003,-0.16 -0.63996,-0.32 -0.16003,-0.16 -0.64001,-0.32001 L 745.44,167.52 744.79999,167.2 744.64001,167.03999 744,166.72 l -0.15997,-0.16 -0.32001,-0.16001 -0.16004,-0.15999 -0.64001,-0.32 -0.15997,-0.16001 -0.64002,-0.31999 -0.15997,-0.16 -0.64001,-0.31999 -0.15998,-0.16001 -0.64001,-0.32 -0.16004,-0.15999 -0.63995,-0.32001 -0.16004,-0.16 -0.64001,-0.32 -0.15997,-0.16 -0.64002,-0.32001 -0.15997,-0.15999 -0.64001,-0.32 -0.15998,-0.16001 -0.64001,-0.31999 -0.16004,-0.16 -0.63995,-0.31999 -0.16004,-0.16001 -0.64001,-0.32001 -0.15997,-0.15998 -0.64002,-0.32001 -0.15997,-0.16 -0.64001,-0.32 -0.15998,-0.16 -0.64001,-0.32001 -0.16004,-0.15999 -0.63995,-0.32 -0.16004,-0.16001 -0.64001,-0.31999 -0.15997,-0.16 -0.64002,-0.32 -0.15997,-0.16 -0.64001,-0.32001 -0.15998,-0.15998 -0.64001,-0.32001 -0.16004,-0.16001 -0.63995,-0.31999 -0.16004,-0.16 -0.64001,-0.31999 -0.15997,-0.16001 -0.64002,-0.32 -0.15997,-0.16001 -0.64001,-0.31999 -0.15998,-0.16 -0.64001,-0.32 -0.16004,-0.16 -0.63995,-0.32001 -0.16004,-0.15999 -0.64001,-0.32 -0.15997,-0.16001 -0.64002,-0.31999 -0.15997,-0.16 -0.64001,-0.31999 -0.15998,-0.16001 -0.64001,-0.32 -0.16004,-0.15999 -0.63995,-0.32001 -0.16004,-0.16 -0.64001,-0.32 -0.15997,-0.16 -0.64002,-0.32001 -0.15997,-0.15999 -0.64001,-0.32 -0.15998,-0.16001 -0.64001,-0.31999 -0.16004,-0.16 -0.63995,-0.31999 -0.16004,-0.16001 -0.64001,-0.32001 -0.15997,-0.15998 -0.64002,-0.32001 -0.15997,-0.16 -0.64001,-0.32 -0.15998,-0.16 -0.32001,-0.16 -0.16003,-0.16001 -0.63995,-0.31999 -0.16004,-0.16 -0.64001,-0.32 -0.15998,-0.16 -0.64001,-0.32001 -0.15997,-0.15999 -0.64002,-0.32 -0.15997,-0.16001 -0.64002,-0.31999 -0.16003,-0.16 -0.63995,-0.31999 L 707.67999,144.8 707.03998,144.48 706.88,144.32001 706.23999,144 l -0.15997,-0.16 -0.64002,-0.32 -0.15997,-0.16 -0.64002,-0.32001 -0.16003,-0.15999 -0.63995,-0.32 -0.16004,-0.16001 -0.64001,-0.31999 -0.15998,-0.16 -0.64001,-0.31999 -0.15997,-0.16001 -0.64002,-0.32001 -0.15997,-0.15998 -0.64002,-0.32001 -0.16003,-0.16 -0.63995,-0.32 -0.16004,-0.16 -0.64001,-0.32001 L 698.88,139.52 698.23999,139.2 698.08002,139.03999 697.44,138.72 l -0.15997,-0.16 -0.64002,-0.32 -0.16003,-0.16 -0.63995,-0.32001 -0.16004,-0.15998 -0.64001,-0.32001 -0.15998,-0.16001 -0.64001,-0.31999 -0.15997,-0.16 -0.64002,-0.31999 -0.15997,-0.16001 -0.64002,-0.32 -0.16003,-0.16001 -0.63995,-0.31999 -0.16004,-0.16 -0.64001,-0.32 -0.15998,-0.16 -0.64001,-0.32001 -0.15997,-0.15999 -0.64002,-0.32 -0.15997,-0.16001 -0.64002,-0.31999 -0.16003,-0.16 -0.63995,-0.31999 L 687.67999,132.8 687.03998,132.48 686.88,132.32001 686.23999,132 l -0.15997,-0.16 -0.64002,-0.32 -0.15997,-0.16 -0.64002,-0.32001 -0.16003,-0.15999 -0.63995,-0.32 -0.16004,-0.16001 -0.64001,-0.31999 -0.15998,-0.16 -0.64001,-0.31999 -0.15997,-0.16001 -0.32001,-0.16 -0.16003,-0.16001 -0.63996,-0.31999 -0.16003,-0.16 -0.64002,-0.31999 L 680,128.16 l -0.64002,-0.32 -0.15997,-0.16 -0.64001,-0.32 -0.15998,-0.16 -0.64001,-0.32 -0.16003,-0.16 -0.63996,-0.32 -0.16003,-0.16 -0.64002,-0.32 -0.15997,-0.16 -0.64002,-0.32 -0.15997,-0.16 -0.64001,-0.32 -0.15998,-0.16 -0.64001,-0.32 -0.16003,-0.16 -0.63996,-0.32 -0.16003,-0.16 -0.64002,-0.32 -0.15997,-0.16 -0.64002,-0.32 -0.15997,-0.16 -0.64001,-0.32 -0.15998,-0.16 -0.64001,-0.32 -0.16003,-0.16 -0.63996,-0.32 -0.16003,-0.16 -0.64002,-0.32 -0.15997,-0.16 -0.64002,-0.32 -0.15997,-0.16 -0.64001,-0.32 -0.15998,-0.16 -0.64001,-0.32 -0.16003,-0.16 -0.63996,-0.32 -0.16003,-0.16 -0.64002,-0.32 -0.15997,-0.16 -0.64002,-0.32 -0.15997,-0.16 -0.64001,-0.32 -0.15998,-0.16 -0.64001,-0.32 -0.16003,-0.16 -0.63996,-0.32 -0.16003,-0.16 -0.64002,-0.32 -0.15997,-0.16 -0.64002,-0.32 -0.15997,-0.16 -0.64001,-0.32 -0.15998,-0.16 -0.64001,-0.32 -0.16003,-0.16 -0.63996,-0.32 -0.16003,-0.16 -0.64002,-0.32 -0.15997,-0.16 -0.64002,-0.32 -0.15997,-0.16 -0.64001,-0.32 -0.15998,-0.16 -0.64001,-0.32 -0.16003,-0.16 -0.63996,-0.32 -0.16003,-0.16 -0.64002,-0.32 -0.15997,-0.16 -0.64002,-0.32 -0.15997,-0.16 -0.32001,-0.16 -0.16003,-0.16 -0.63995,-0.32 -0.16004,-0.16 -0.63995,-0.32 -0.16003,-0.16 -0.64002,-0.32 -0.15997,-0.16 -0.64002,-0.32 -0.15997,-0.16 -0.64002,-0.32 -0.16003,-0.16 -0.63995,-0.32 -0.16004,-0.16 -0.63995,-0.32 -0.16003,-0.16 -0.64002,-0.32 -0.15997,-0.16 -0.64002,-0.32 -0.15997,-0.16 -0.64002,-0.32 -0.16003,-0.16 -0.63995,-0.32 -0.16004,-0.16 -0.63995,-0.32 -0.16003,-0.16 -0.64002,-0.32 -0.15997,-0.16 -0.64002,-0.32 -0.15997,-0.16 -0.64002,-0.32 -0.16003,-0.16 -0.63995,-0.32 -0.16004,-0.16 -0.63995,-0.32 -0.16003,-0.16 -0.64002,-0.32 -0.15997,-0.16 -0.64002,-0.32 -0.15997,-0.16 -0.64002,-0.32 -0.16003,-0.16 -0.63995,-0.32 -0.16004,-0.16 -0.63995,-0.32 -0.16003,-0.16 -0.64002,-0.32 -0.15997,-0.160003 -0.64002,-0.32 -0.15997,-0.159996 -0.64002,-0.32 -0.16003,-0.160003 -0.63995,-0.32 -0.16004,-0.159996 -0.63995,-0.32 -0.16003,-0.160004 -0.64002,-0.319999 -0.15997,-0.159996 -0.64002,-0.32 -0.15997,-0.160004 L 626.88,96.32 626.71997,96.160004 626.08002,95.839996 625.91998,95.68 625.28003,95.360001 625.12,95.199997 l -0.64002,-0.32 -0.15997,-0.159996 -0.64002,-0.319999 -0.15997,-0.160004 -0.64002,-0.32 -0.16003,-0.159996 -0.63995,-0.32 -0.16004,-0.160003 -0.63995,-0.32 -0.16003,-0.159996 -0.64002,-0.32 L 620.32001,92.32 620,92.160004 619.84003,92 l -0.64002,-0.32 -0.16003,-0.160003 -0.63996,-0.32 -0.16003,-0.159996 -0.64001,-0.32 -0.15998,-0.160003 -0.64001,-0.32 -0.15998,-0.159996 -0.64001,-0.32 -0.15997,-0.160004 -0.64002,-0.319999 -0.16003,-0.159996 -0.63996,-0.32 -0.16003,-0.160004 L 613.59998,88.32 613.44,88.160004 612.79999,87.839996 612.64001,87.68 612,87.360001 l -0.15997,-0.160004 -0.64002,-0.32 -0.16003,-0.159996 -0.63996,-0.319999 -0.16003,-0.160004 -0.64001,-0.32 -0.15998,-0.159996 -0.64001,-0.32 -0.15998,-0.160003 -0.64001,-0.32 -0.15997,-0.159996 -0.64002,-0.32 L 607.03998,84.32 606.40002,84 l -0.16003,-0.160004 -0.64001,-0.319999 -0.15998,-0.159996 -0.64001,-0.32 -0.15998,-0.160004 L 604,82.559998 l -0.15997,-0.159996 -0.64002,-0.32 -0.16003,-0.160004 -0.63996,-0.32 -0.16003,-0.159996 -0.64001,-0.319999 -0.15998,-0.160004 -0.64001,-0.32 -0.15998,-0.159996 L 600,80.160004 599.84003,80 l -0.64002,-0.32 -0.16003,-0.160003 -0.63996,-0.32 -0.16003,-0.159996 -0.64001,-0.32 -0.15998,-0.160003 -0.64001,-0.32 -0.15998,-0.159996 -0.64001,-0.32 -0.15997,-0.160004 -0.64002,-0.319999 -0.16003,-0.159996 -0.63996,-0.32 -0.16003,-0.160004 L 593.59998,76.32 593.44,76.160004 592.79999,75.839996 592.64001,75.68 592,75.360001 l -0.15997,-0.160004 -0.64002,-0.32 -0.16003,-0.159996 -0.63996,-0.319999 -0.16003,-0.160004 -0.64001,-0.32 -0.15998,-0.159996 -0.32,-0.160004 -0.15998,-0.159996 -0.64001,-0.319999 -0.16004,-0.160004 -0.63995,-0.32 -0.16004,-0.159996 -0.64001,-0.319999 L 586.56,72 l -0.64002,-0.32 -0.15997,-0.160003 -0.64001,-0.32 -0.15998,-0.159996 -0.64001,-0.32 -0.16004,-0.160003 -0.63995,-0.32 -0.16004,-0.159996 -0.64001,-0.32 -0.15997,-0.160004 -0.64002,-0.319999 -0.15997,-0.159996 -0.64001,-0.32 -0.15998,-0.160004 L 580.32001,68.32 580.15997,68.160004 579.52002,67.839996 579.35998,67.68 578.71997,67.360001 578.56,67.199997 l -0.64002,-0.32 -0.15997,-0.159996 -0.64001,-0.319999 -0.15998,-0.160004 -0.64001,-0.32 -0.16004,-0.159996 -0.63995,-0.32 -0.16004,-0.160003 -0.64001,-0.32 -0.15997,-0.159996 -0.64002,-0.32 L 573.76001,64.32 573.12,64 l -0.15998,-0.16 -0.64001,-0.32 -0.16004,-0.159999 -0.63995,-0.32 -0.16004,-0.16 -0.64001,-0.32 -0.15997,-0.159999 -0.64002,-0.32 -0.15997,-0.160004 -0.64001,-0.32 -0.15998,-0.159999 -0.64001,-0.32 -0.16004,-0.16 -0.63995,-0.32 L 567.35998,60.48 566.71997,60.16 566.56,60 l -0.64002,-0.32 -0.15997,-0.16 -0.64001,-0.319999 -0.15998,-0.16 -0.64001,-0.32 -0.16004,-0.16 -0.63995,-0.319999 -0.16004,-0.16 -0.64001,-0.320004 -0.15997,-0.16 -0.64002,-0.319999 -0.15997,-0.16 -0.64001,-0.32 -0.15998,-0.16 -0.64001,-0.319999 -0.16004,-0.16 -0.63995,-0.32 -0.16004,-0.16 -0.64001,-0.319999 -0.15997,-0.16 -0.32001,-0.16 -0.15997,-0.16 -0.64002,-0.32 -0.15997,-0.159999 -0.64002,-0.32 -0.16003,-0.160004 -0.63995,-0.32 -0.16004,-0.159999 -0.64001,-0.32 -0.15998,-0.16 -0.64001,-0.32 L 554.08002,52.48 553.44,52.16 553.28003,52 l -0.64002,-0.32 -0.16003,-0.16 -0.63995,-0.319999 -0.16004,-0.16 -0.64001,-0.32 -0.15998,-0.16 -0.64001,-0.319999 -0.15997,-0.16 -0.64002,-0.320004 -0.15997,-0.16 -0.64002,-0.319999 -0.16003,-0.16 -0.63995,-0.32 -0.16004,-0.16 L 547.03998,48.32 546.88,48.16 l -0.64001,-0.32 -0.15997,-0.16 -0.64002,-0.319999 -0.15997,-0.16 -0.64002,-0.32 -0.16003,-0.16 -0.63995,-0.319999 -0.16004,-0.16 -0.64001,-0.320004 -0.15998,-0.16 -0.64001,-0.319999 -0.15997,-0.16 -0.64002,-0.32 -0.15997,-0.16 -0.64002,-0.319999 -0.16003,-0.16 -0.63995,-0.32 -0.16004,-0.16 -0.64001,-0.32 -0.15998,-0.159999 -0.64001,-0.32 -0.15997,-0.16 -0.64002,-0.32 -0.15997,-0.159999 -0.64002,-0.32 -0.16003,-0.160004 -0.63995,-0.32 -0.16004,-0.159999 -0.64001,-0.32 -0.15998,-0.16 -0.64001,-0.32 L 534.08002,40.48 533.44,40.16 533.28003,40 l -0.64002,-0.32 -0.16003,-0.16 -0.63995,-0.319999 -0.16004,-0.16 -0.64001,-0.32 -0.15998,-0.16 -0.64001,-0.319999 -0.15997,-0.16 -0.64002,-0.320004 -0.15997,-0.16 -0.64002,-0.319999 -0.16003,-0.16 -0.32001,-0.16 z"
         clip-rule="evenodd"
         id="path940" />
    </clipPath>
  </defs>
  <g
     inkscape:label="Layer 1"
     inkscape:groupmode="layer"
     id="layer1">
    <g
       id="g830"
       inkscape:label="logo_1"
       transform="matrix(0.26458333,0,0,0.26458333,7.3932849,14.512274)">
      <g
         id="g832">
        <g
           id="g834"
           clip-path="url(#clipPath838)">
          <path
             d="M 301.60001,250.39999 H 754.23999 V 778.88 H 301.60001 Z"
             style="fill:#000000;fill-opacity:1;fill-rule:nonzero;stroke:none"
             id="path840" />
        </g>
      </g>
      <g
         id="g842">
        <path
           d="M 301.60001,250.39999 V 778.88"
           style="fill:none;stroke:#000000;stroke-width:2.08;stroke-linecap:round;stroke-linejoin:round;stroke-miterlimit:10;stroke-dasharray:none;stroke-opacity:1"
           id="path844" />
      </g>
      <g
         id="g846">
        <path
           d="M 301.60001,778.88 H 401.28"
           style="fill:none;stroke:#000000;stroke-width:2.08;stroke-linecap:round;stroke-linejoin:round;stroke-miterlimit:10;stroke-dasharray:none;stroke-opacity:1"
           id="path848" />
      </g>
      <g
         id="g850">
        <path
           d="M 401.28,778.88 V 558.71997"
           style="fill:none;stroke:#000000;stroke-width:2.08;stroke-linecap:round;stroke-linejoin:round;stroke-miterlimit:10;stroke-dasharray:none;stroke-opacity:1"
           id="path852" />
      </g>
      <g
         id="g854">
        <path
           d="M 401.28,558.71997 H 652.32001"
           style="fill:none;stroke:#000000;stroke-width:2.08;stroke-linecap:round;stroke-linejoin:round;stroke-miterlimit:10;stroke-dasharray:none;stroke-opacity:1"
           id="path856" />
      </g>
      <g
         id="g858">
        <path
           d="M 652.32001,558.71997 V 778.88"
           style="fill:none;stroke:#000000;stroke-width:2.08;stroke-linecap:round;stroke-linejoin:round;stroke-miterlimit:10;stroke-dasharray:none;stroke-opacity:1"
           id="path860" />
      </g>
      <g
         id="g862">
        <path
           d="M 652.32001,778.88 H 754.23999"
           style="fill:none;stroke:#000000;stroke-width:2.08;stroke-linecap:round;stroke-linejoin:round;stroke-miterlimit:10;stroke-dasharray:none;stroke-opacity:1"
           id="path864" />
      </g>
      <g
         id="g866">
        <path
           d="M 754.23999,778.88 V 250.39999"
           style="fill:none;stroke:#000000;stroke-width:2.08;stroke-linecap:round;stroke-linejoin:round;stroke-miterlimit:10;stroke-dasharray:none;stroke-opacity:1"
           id="path868" />
      </g>
      <g
         id="g870">
        <path
           d="m 754.23999,250.39999 h -88"
           style="fill:none;stroke:#000000;stroke-width:2.08;stroke-linecap:round;stroke-linejoin:round;stroke-miterlimit:10;stroke-dasharray:none;stroke-opacity:1"
           id="path872" />
      </g>
      <g
         id="g874">
        <path
           d="M 666.23999,250.39999 V 470.56"
           style="fill:none;stroke:#000000;stroke-width:2.08;stroke-linecap:round;stroke-linejoin:round;stroke-miterlimit:10;stroke-dasharray:none;stroke-opacity:1"
           id="path876" />
      </g>
      <g
         id="g878">
        <path
           d="M 666.23999,470.56 H 389.60001"
           style="fill:none;stroke:#000000;stroke-width:2.08;stroke-linecap:round;stroke-linejoin:round;stroke-miterlimit:10;stroke-dasharray:none;stroke-opacity:1"
           id="path880" />
      </g>
      <g
         id="g882">
        <path
           d="M 389.60001,470.56 V 250.39999"
           style="fill:none;stroke:#000000;stroke-width:2.08;stroke-linecap:round;stroke-linejoin:round;stroke-miterlimit:10;stroke-dasharray:none;stroke-opacity:1"
           id="path884" />
      </g>
      <g
         id="g886">
        <path
           d="m 389.60001,250.39999 h -88"
           style="fill:none;stroke:#000000;stroke-width:2.08;stroke-linecap:round;stroke-linejoin:round;stroke-miterlimit:10;stroke-dasharray:none;stroke-opacity:1"
           id="path888" />
      </g>
      <g
         id="g890">
        <g
           id="g892"
           clip-path="url(#clipPath896)">
          <path
             d="M 279.67999,250.39999 H 776.32001 V 778.88 H 279.67999 Z"
             style="fill:#234e78;fill-opacity:1;fill-rule:nonzero;stroke:none"
             id="path898" />
        </g>
      </g>
      <g
         id="g900">
        <path
           d="M 656.15997,250.39999 528,388.48001"
           style="fill:none;stroke:#000000;stroke-width:2.08;stroke-linecap:round;stroke-linejoin:round;stroke-miterlimit:10;stroke-dasharray:none;stroke-opacity:1"
           id="path902" />
      </g>
      <g
         id="g904">
        <path
           d="M 528,388.48001 399.67999,250.39999"
           style="fill:none;stroke:#000000;stroke-width:2.08;stroke-linecap:round;stroke-linejoin:round;stroke-miterlimit:10;stroke-dasharray:none;stroke-opacity:1"
           id="path906" />
      </g>
      <g
         id="g908">
        <path
           d="m 399.67999,250.39999 h -120.16"
           style="fill:none;stroke:#000000;stroke-width:2.08;stroke-linecap:round;stroke-linejoin:round;stroke-miterlimit:10;stroke-dasharray:none;stroke-opacity:1"
           id="path910" />
      </g>
      <g
         id="g912">
        <path
           d="M 279.51999,250.39999 484,470.56"
           style="fill:none;stroke:#000000;stroke-width:2.08;stroke-linecap:round;stroke-linejoin:round;stroke-miterlimit:10;stroke-dasharray:none;stroke-opacity:1"
           id="path914" />
      </g>
      <g
         id="g916">
        <path
           d="M 484,470.56 V 778.88"
           style="fill:none;stroke:#000000;stroke-width:2.08;stroke-linecap:round;stroke-linejoin:round;stroke-miterlimit:10;stroke-dasharray:none;stroke-opacity:1"
           id="path918" />
      </g>
      <g
         id="g920">
        <path
           d="m 484,778.88 h 87.84003"
           style="fill:none;stroke:#000000;stroke-width:2.08;stroke-linecap:round;stroke-linejoin:round;stroke-miterlimit:10;stroke-dasharray:none;stroke-opacity:1"
           id="path922" />
      </g>
      <g
         id="g924">
        <path
           d="M 571.84003,778.88 V 470.56"
           style="fill:none;stroke:#000000;stroke-width:2.08;stroke-linecap:round;stroke-linejoin:round;stroke-miterlimit:10;stroke-dasharray:none;stroke-opacity:1"
           id="path926" />
      </g>
      <g
         id="g928">
        <path
           d="M 571.84003,470.56 776.32001,250.39999"
           style="fill:none;stroke:#000000;stroke-width:2.08;stroke-linecap:round;stroke-linejoin:round;stroke-miterlimit:10;stroke-dasharray:none;stroke-opacity:1"
           id="path930" />
      </g>
      <g
         id="g932">
        <path
           d="M 776.32001,250.39999 H 656.15997"
           style="fill:none;stroke:#000000;stroke-width:2.08;stroke-linecap:round;stroke-linejoin:round;stroke-miterlimit:10;stroke-dasharray:none;stroke-opacity:1"
           id="path934" />
      </g>
      <g
         id="g936">
        <g
           id="g938"
           clip-path="url(#clipPath942)">
          <path
             d="M 188.32001,36.959999 H 867.52002 V 241.11999 H 188.32001 Z"
             style="fill:#000000;fill-opacity:1;fill-rule:nonzero;stroke:none"
             id="path944" />
        </g>
      </g>
      <g
         id="g946">
        <path
           d="M 528,36.959999 188.32001,241.11999"
           style="fill:none;stroke:#000000;stroke-width:2.08;stroke-linecap:round;stroke-linejoin:round;stroke-miterlimit:10;stroke-dasharray:none;stroke-opacity:1"
           id="path948" />
      </g>
      <g
         id="g950">
        <path
           d="M 188.32001,241.11999 H 867.52002"
           style="fill:none;stroke:#000000;stroke-width:2.08;stroke-linecap:round;stroke-linejoin:round;stroke-miterlimit:10;stroke-dasharray:none;stroke-opacity:1"
           id="path952" />
      </g>
      <g
         id="g954">
        <path
           d="M 867.52002,241.11999 528,36.959999"
           style="fill:none;stroke:#000000;stroke-width:2.08;stroke-linecap:round;stroke-linejoin:round;stroke-miterlimit:10;stroke-dasharray:none;stroke-opacity:1"
           id="path956" />
      </g>
      <g
         id="g958">
        <path
           d="M 279.51999,250.39999 484,470.56"
           style="fill:none;stroke:#000000;stroke-width:0.32;stroke-linecap:round;stroke-linejoin:round;stroke-miterlimit:10;stroke-dasharray:none;stroke-opacity:1"
           id="path960" />
      </g>
    </g>
    <text
       xml:space="preserve"
       style="font-style:normal;font-variant:normal;font-weight:normal;font-stretch:normal;font-size:10.2776px;line-height:1.05;font-family:Raleway;-inkscape-font-specification:'Raleway, Normal';font-variant-ligatures:normal;font-variant-caps:normal;font-variant-numeric:normal;font-variant-east-asian:normal;fill:#000000;fill-opacity:1;stroke:none;stroke-width:0.256942"
       x="222.90335"
       y="164.81686"
       id="text5399"
       transform="scale(1.0297397,0.9711192)"><tspan
         sodipodi:role="line"
         id="tspan5397"
         style="font-style:normal;font-variant:normal;font-weight:normal;font-stretch:normal;font-size:30.833px;font-family:Raleway;-inkscape-font-specification:'Raleway, Normal';font-variant-ligatures:normal;font-variant-caps:normal;font-variant-numeric:normal;font-variant-east-asian:normal;stroke-width:0.256942"
         x="222.90335"
         y="164.81686">HARRIS-YEIDER</tspan><tspan
         sodipodi:role="line"
         style="font-style:normal;font-variant:normal;font-weight:normal;font-stretch:normal;font-size:30.833px;font-family:Raleway;-inkscape-font-specification:'Raleway, Normal';font-variant-ligatures:normal;font-variant-caps:normal;font-variant-numeric:normal;font-variant-east-asian:normal;stroke-width:0.256942"
         x="222.90335"
         y="197.19151"
         id="tspan5401">CONSTRUCTION</tspan></text>
    <text
       xml:space="preserve"
       transform="matrix(0.34010511,0,0,0.29958171,56.041516,19.702681)"
       id="text37591"
       style="font-style:normal;font-variant:normal;font-weight:bold;font-stretch:normal;font-size:33.1557px;line-height:1.15;font-family:sans-serif;-inkscape-font-specification:'sans-serif, Bold';font-variant-ligatures:normal;font-variant-caps:normal;font-variant-numeric:normal;font-variant-east-asian:normal;white-space:pre;shape-inside:url(#rect37593);fill:#000000;fill-opacity:1;stroke:none"
       x="373.7793"
       y="0"><tspan
         x="627.44931"
         y="626.71435"
         id="tspan91049"><tspan
           style="text-align:center;text-anchor:middle"
           id="tspan91047">HIGH QUALITY REMODELS,
</tspan></tspan><tspan
         x="528.30599"
         y="664.84338"
         id="tspan91053"><tspan
           style="text-align:center;text-anchor:middle"
           id="tspan91051">NEW CONSTRUCTION, AND PROJECTS</tspan></tspan></text>
  </g>
</svg>
